# xmcd CD database file
#
# Track frame offsets:
#	150
#	17444
#	35445
#	55482
#	76129
#	102095
#	134935
#	155408
#	171722
#	190206
#	210949
#	231689
#
# Disc length: 3282 seconds
#
# Revision: 0
# Processed by: cddbd v1.5.2PL0 Copyright (c) Steve Scherf et al.
# Submitted via: CDex 1.70beta2
#
DISCID=a60cd00c
DTITLE=Roy Eldridge - Jazz Roads CD115 - Swing - Vol.7 (1954-55)
DYEAR=2006
DGENRE=Jazz
TTITLE0=Roy Eldridge And His Orchestra - If I Had You
TTITLE1=Roy Eldridge And His Orchestra - Blue Moon
TTITLE2=Roy Eldridge And His Orchestra - Stormy Weather
TTITLE3=Roy Eldridge And His Orchestra - Sweethearts On Parade
TTITLE4=Roy Eldridge And His Orchestra - A Foggy Day
TTITLE5=Roy Eldridge And His Orchestra - I Only Have Eyes For You
TTITLE6=Roy Eldridge And His Orchestra - Sweet Georgia Brown
TTITLE7=Roy Eldridge And His Orchestra - The Song Is Ended
TTITLE8=Roy Eldridge And Alvin Stoller  - Where's Art
TTITLE9=Roy Eldridge And Alvin Stoller  - I Don't Know
TTITLE10=Roy Eldridge And Alvin Stoller  - Striding
TTITLE11=Roy Eldridge And Alvin Stoller  - Wailing
EXTD=YEAR: 2006
EXTT0=
EXTT1=
EXTT2=
EXTT3=
EXTT4=
EXTT5=
EXTT6=
EXTT7=
EXTT8=
EXTT9=
EXTT10=
EXTT11=
PLAYORDER=
